<?xml version="1.0" encoding="UTF-8"?>
<svg version="1.1" xmlns="http://www.w3.org/2000/svg" width="489" height="322">
<path d="M0 0 C161.37 0 322.74 0 489 0 C489 106.26 489 212.52 489 322 C327.63 322 166.26 322 0 322 C0 215.74 0 109.48 0 0 Z " fill="#FCFDFD" transform="translate(0,0)"/>
<path d="M0 0 C5.10841702 4.2762451 9.89109048 8.75224157 14.58764648 13.47412109 C15.31043289 14.19676147 16.0332193 14.91940186 16.77790833 15.66394043 C19.14468416 18.03140785 21.50790719 20.40238775 23.87109375 22.7734375 C25.51996846 24.42417907 27.16906542 26.07469867 28.81837463 27.7250061 C33.14254924 32.05298478 37.4637113 36.38395899 41.78424072 40.71557617 C46.2000387 45.14163376 50.618696 49.56483481 55.03710938 53.98828125 C63.69419795 62.6560699 72.34810481 71.32702769 81 80 C79.61392869 82.88011503 78.29430637 84.95186427 76.01904297 87.20800781 C75.41857147 87.80832825 74.81809998 88.40864868 74.19943237 89.02716064 C73.23059616 89.980513 73.23059616 89.980513 72.2421875 90.953125 C71.57913605 91.61334656 70.91608459 92.27356812 70.23294067 92.95379639 C68.11828168 95.05727824 65.99676788 97.15369142 63.875 99.25 C62.43834443 100.67662261 61.00214102 102.10370072 59.56640625 103.53125 C56.04949196 107.02613661 52.52641453 110.51470062 49 114 C45.51027997 112.50469676 43.26534605 110.50808338 40.59863281 107.82568359 C39.7380426 106.96494232 38.87745239 106.10420105 37.99078369 105.21737671 C37.07085632 104.28712677 36.15092896 103.35687683 35.203125 102.3984375 C34.24520903 101.43678914 33.28684886 100.47558306 32.32806396 99.51480103 C29.81164875 96.99076718 27.30129893 94.46078409 24.79217529 91.92950439 C22.22837559 89.3452081 19.65887082 86.76659801 17.08984375 84.1875 C12.05430543 79.13054303 7.0251544 74.06727744 2 69 C-1.53239023 70.50684968 -3.7962166 72.55366612 -6.49316406 75.26611328 C-7.37377502 76.14687531 -8.25438599 77.02763733 -9.16168213 77.93508911 C-10.11310431 78.89672351 -11.06441603 79.8584672 -12.015625 80.8203125 C-12.99596129 81.80438107 -13.97674168 82.78800742 -14.95794678 83.77120972 C-17.53354467 86.35442714 -20.10307857 88.94359512 -22.67138672 91.53405762 C-25.29551067 94.1786762 -27.92533771 96.8176101 -30.5546875 99.45703125 C-35.7087167 104.63248072 -40.85635157 109.81423122 -46 115 C-50.75085867 111.03627475 -55.23613112 106.90205218 -59.58984375 102.5078125 C-60.17923233 101.91700897 -60.76862091 101.32620544 -61.37586975 100.71749878 C-63.23213727 98.85569596 -65.08487085 96.99042255 -66.9375 95.125 C-68.20614672 93.85132989 -69.4750249 92.57789029 -70.74414062 91.3046875 C-73.83210554 88.20577957 -76.91690929 85.10375699 -80 82 C-78.64680663 78.98052101 -77.13702023 76.88899123 -74.79830933 74.55780029 C-74.13925598 73.89599762 -73.48020264 73.23419495 -72.80117798 72.55233765 C-72.07901093 71.83736115 -71.35684387 71.12238464 -70.61279297 70.38574219 C-69.85172241 69.62437958 -69.09065186 68.86301697 -68.30651855 68.07858276 C-65.78978644 65.56324396 -63.26604416 63.05506339 -60.7421875 60.546875 C-58.99583128 58.80424889 -57.2499161 57.06118069 -55.50442505 55.31768799 C-50.90896304 50.72986252 -46.30752651 46.14807483 -41.70483398 41.56750488 C-37.00924536 36.89237414 -32.31931378 32.21157832 -27.62890625 27.53125 C-18.42480823 18.34860228 -9.21458132 9.1721273 0 0 Z " fill="#1DA0E0" transform="translate(245,5)"/>
<path d="M0 0 C1.41196373 10.01738358 2.34467515 20.02621104 2.875 30.125 C2.91437683 30.86952171 2.95375366 31.61404343 2.99432373 32.3811264 C3.86529656 51.0318736 2.53340778 66.24263709 -10.2421875 80.625 C-14.26873044 85.04157428 -18.55200143 89.13695898 -23 93.125 C-23.55005959 93.61856239 -24.10011917 94.11212479 -24.66684723 94.62064362 C-31.53374441 100.73260727 -38.62845871 106.50316234 -46 112 C-50.66874537 108.10023279 -55.09127809 104.04785356 -59.37109375 99.7265625 C-59.93828629 99.15795502 -60.50547882 98.58934753 -61.08985901 98.00350952 C-62.87479913 96.21303764 -64.65620256 94.41909516 -66.4375 92.625 C-67.65796939 91.39950677 -68.87867053 90.17424428 -70.09960938 88.94921875 C-73.06908756 85.96880226 -76.03540257 82.98527106 -79 80 C-77.66046351 77.022279 -76.18648579 74.93699399 -73.88096619 72.63372803 C-72.91979637 71.66626648 -72.91979637 71.66626648 -71.93920898 70.67926025 C-71.23731445 69.98298523 -70.53541992 69.28671021 -69.81225586 68.56933594 C-69.07229874 67.82748047 -68.33234161 67.085625 -67.56996155 66.32128906 C-65.12311496 63.87073787 -62.66914286 61.42746048 -60.21484375 58.984375 C-58.51579466 57.28651773 -56.81711475 55.58829096 -55.11878967 53.88970947 C-51.560062 50.33254599 -47.99799827 46.77876891 -44.43334961 43.22753906 C-39.85239621 38.66360765 -35.2780857 34.09308855 -30.70601559 29.52025986 C-27.20031658 26.01483202 -23.69202326 22.51201069 -20.18283272 19.01007843 C-18.49443795 17.32487667 -16.80665773 15.63905898 -15.11948967 13.95262909 C-12.76828615 11.60358062 -10.41382758 9.25784719 -8.05834961 6.91308594 C-7.35443085 6.20871399 -6.65051208 5.50434204 -5.92526245 4.77862549 C-5.2873024 4.14493042 -4.64934235 3.51123535 -3.99205017 2.8583374 C-3.15665411 2.02545511 -3.15665411 2.02545511 -2.30438137 1.17574692 C-1 0 -1 0 0 0 Z " fill="#1579AA" transform="translate(245,8)"/>
<path d="M0 0 C6.47625 -0.061875 12.9525 -0.12375 19.625 -0.1875 C22.67548584 -0.22846802 22.67548584 -0.22846802 25.78759766 -0.27026367 C27.41307991 -0.2790317 29.03856878 -0.28667489 30.6640625 -0.29296875 C31.91352661 -0.3159906 31.91352661 -0.3159906 33.18823242 -0.33947754 C40.50397924 -0.34274642 45.63864345 1.91358481 51 7 C56.6302396 14.83475596 57.95773115 21.33462124 57 31 C54.97145263 37.67692273 51.14240278 43.47332383 45 47 C43.33880806 47.3596251 41.67222715 47.69578751 40 48 C41.87117119 51.14812522 43.74765285 54.29305448 45.625 57.4375 C46.40810547 58.75524414 46.40810547 58.75524414 47.20703125 60.09960938 C50.28782236 65.25327846 53.47899412 70.2798662 56.91162109 75.20727539 C58 77 58 77 58 79 C54.79908297 79.56156439 53.06620749 79.83179033 50 79 C47.00384161 76.13440815 45.12088468 72.53618321 43 69 C42.04537923 67.53622556 41.08395055 66.07687726 40.1171875 64.62109375 C35.89041386 58.23191056 35.89041386 58.23191056 34.16015625 55.5625 C33.74386963 54.92441406 33.32758301 54.28632813 32.89868164 53.62890625 C32 52 32 52 32 50 C24.08 50 16.16 50 8 50 C8 59.57 8 69.14 8 79 C5.36 79 2.72 79 0 79 C0 52.93 0 26.86 0 0 Z " fill="#393939" transform="translate(10,175)"/>
<path d="M0 0 C2.84241762 1.29334471 4.90775233 2.65590396 7.11621094 4.85742188 C7.69651062 5.43141724 8.2768103 6.0054126 8.87469482 6.59680176 C9.79523651 7.52341614 9.79523651 7.52341614 10.734375 8.46875 C11.37240051 9.10486206 12.01042603 9.74097412 12.66778564 10.3963623 C14.01161574 11.73883387 15.35293329 13.08382461 16.69189453 14.43115234 C18.74942465 16.49942165 20.81744049 18.55677328 22.88671875 20.61328125 C24.19074625 21.91862971 25.49415356 23.2245981 26.796875 24.53125 C27.41866638 25.14899292 28.04045776 25.76673584 28.68109131 26.40319824 C33 30.77006927 33 30.77006927 33 33 C31.65209961 34.32885742 31.65209961 34.32885742 29.71484375 35.91796875 C24.56827794 40.29544229 19.81505789 45.03405081 15.05200195 49.81762695 C13.54427904 51.33078666 12.03118241 52.83842885 10.51757812 54.34570312 C9.55436608 55.30957474 8.5914636 56.27375584 7.62890625 57.23828125 C6.3306189 58.5382605 6.3306189 58.5382605 5.00610352 59.86450195 C2.9632226 61.83484761 2.9632226 61.83484761 2 64 C-0.85779017 62.70280076 -2.91008536 61.3363174 -5.11621094 59.11083984 C-5.69651062 58.5303891 -6.2768103 57.94993835 -6.87469482 57.35189819 C-7.48838928 56.72788116 -8.10208374 56.10386414 -8.734375 55.4609375 C-9.37240051 54.82008209 -10.01042603 54.17922668 -10.66778564 53.51895142 C-12.69994069 51.47562179 -14.72502218 49.42544018 -16.75 47.375 C-18.1284453 45.9865214 -19.50734636 44.5984951 -20.88671875 43.2109375 C-24.26311894 39.81251303 -27.63319288 36.40792746 -31 33 C-29.70280076 30.14220983 -28.3363174 28.08991464 -26.11083984 25.88378906 C-25.5303891 25.30348938 -24.94993835 24.7231897 -24.35189819 24.12530518 C-23.72788116 23.51161072 -23.10386414 22.89791626 -22.4609375 22.265625 C-21.82008209 21.62759949 -21.17922668 20.98957397 -20.51895142 20.33221436 C-18.47562179 18.30005931 -16.42544018 16.27497782 -14.375 14.25 C-12.9865214 12.8715547 -11.5984951 11.49265364 -10.2109375 10.11328125 C-6.81251303 6.73688106 -3.40792746 3.36680712 0 0 Z " fill="#1DA1E2" transform="translate(245,88)"/>
<path d="M0 0 C6.93407611 3.98895776 10.95662852 8.9287722 14.1796875 16.25390625 C15.1796875 20.25390625 15.1796875 20.25390625 15.1796875 30.25390625 C-1.3203125 30.25390625 -17.8203125 30.25390625 -34.8203125 30.25390625 C-31.03641246 41.47144314 -31.03641246 41.47144314 -23.3203125 49.12890625 C-16.74973089 51.24087891 -9.63002977 51.36810448 -3.1953125 48.81640625 C-2.4115625 48.30078125 -1.6278125 47.78515625 -0.8203125 47.25390625 C0.1696875 46.92390625 1.1596875 46.59390625 2.1796875 46.25390625 C3.39838679 43.74943109 3.39838679 43.74943109 4.1796875 41.25390625 C6.4896875 41.58390625 8.7996875 41.91390625 11.1796875 42.25390625 C9.0603596 48.99722229 4.13355715 52.78081562 -1.8203125 56.25390625 C-10.9983391 58.6234484 -20.51431955 58.49928285 -28.7734375 53.66796875 C-36.09749089 48.60822194 -41.18615263 41.01894554 -42.8203125 32.25390625 C-43.67570659 22.21830054 -41.9825426 14.06544147 -35.63671875 6.11328125 C-26.01305248 -3.73804165 -12.51818961 -5.8897056 0 0 Z " fill="#3A3A3A" transform="translate(118.8203125,197.74609375)"/>
<path d="M0 0 C4.4476771 3.34621474 7.9156401 6.98653398 9.03271484 12.58300781 C9.22528292 15.57817425 9.21356887 18.50061177 9.1171875 21.5 C9.12685547 23.0159375 9.12685547 23.0159375 9.13671875 24.5625 C9.04936812 30.61351643 8.54281264 34.29507358 4.4921875 38.875 C-2.34741511 44.03959789 -8.11999005 44.63752931 -16.5078125 43.875 C-22.88149464 41.93721386 -27.10869596 36.51052131 -30.65234375 31.140625 C-32.90848226 25.16546365 -32.37772496 16.36506797 -30.85546875 10.2578125 C-28.23369351 4.47415382 -23.51484373 0.57127403 -18.0703125 -2.5 C-10.9996775 -4.22454512 -6.43369998 -3.03755015 0 0 Z " fill="#FCFCFC" transform="translate(405.5078125,204.125)"/>
<path d="M0 0 C2.64 0 5.28 0 8 0 C8.33 24.42 8.66 48.84 9 74 C9.99 74.495 9.99 74.495 11 75 C11 77.64 11 80.28 11 83 C4.54985337 82.51319648 4.54985337 82.51319648 2.125 80.25 C0.91136473 77.82272946 0.37230633 75.68060559 0 73 C-0.7425 73.763125 -1.485 74.52625 -2.25 75.3125 C-8.02940244 80.96055238 -12.60810316 83.28454359 -20.8125 83.375 C-29.00023635 83.22970614 -33.64503437 81.30858056 -39.6875 75.9375 C-46.58563286 68.42233232 -48.77693235 60.33881523 -48.66210938 50.35473633 C-48.20618863 41.71832244 -44.93910332 34.31730481 -38.5 28.4375 C-32.1260191 23.42267679 -26.44589861 22.40566839 -18.484375 22.58203125 C-10.58435459 23.52967944 -6.51592884 27.48407116 -1 33 C-0.67 22.11 -0.34 11.22 0 0 Z M-36.7734375 38.12109375 C-41.2929441 45.04428699 -40.76371688 53.06848198 -40 61 C-37.98845271 67.00770151 -33.14955727 71.47340746 -28 75 C-22.11981742 76.96006086 -15.39729157 76.82815527 -9.5625 74.8125 C-5.61164658 72.01799392 -2.68125565 69.02188348 0 65 C0.51446315 61.2884602 0.46272987 57.55581905 0.5 53.8125 C0.54125 52.79607422 0.5825 51.77964844 0.625 50.73242188 C0.69097399 44.34531482 -0.12834062 40.42580381 -4.37792969 35.55737305 C-8.66170116 31.44446241 -14.15440494 28.80184734 -20.125 28.4375 C-27.47605153 29.50458813 -32.06037498 32.44698775 -36.7734375 38.12109375 Z " fill="#3B3B3B" transform="translate(414,172)"/>
<path d="M0 0 C4.846875 -0.061875 9.69375 -0.12375 14.6875 -0.1875 C16.96853638 -0.22846802 16.96853638 -0.22846802 19.2956543 -0.27026367 C21.1041687 -0.28150269 21.1041687 -0.28150269 22.94921875 -0.29296875 C24.79519653 -0.31653442 24.79519653 -0.31653442 26.6784668 -0.34057617 C30.94542777 0.09694022 33.52798685 1.53913846 36.546875 4.53515625 C40.98447904 10.16860814 41.46554483 13.44471664 41.41015625 20.58984375 C40.79097356 25.73790554 38.74718739 29.4378589 35 33 C30.5072737 35.66745413 27.27049771 36.36199776 22.0703125 36.29296875 C20.32645264 36.28172974 20.32645264 36.28172974 18.54736328 36.27026367 C17.0879834 36.24295166 15.62860352 36.21563965 14.125 36.1875 C9.46375 36.125625 4.8025 36.06375 0 36 C0 24.12 0 12.24 0 0 Z " fill="#FCFCFC" transform="translate(18,182)"/>
<path d="M0 0 C2.31 0 4.62 0 7 0 C7.01458252 1.10400146 7.02916504 2.20800293 7.04418945 3.34545898 C7.10256657 7.47760925 7.17979393 11.60923684 7.26245117 15.7409668 C7.29551638 17.52245543 7.32360442 19.30404418 7.34643555 21.08569336 C7.38032307 23.66042386 7.43265143 26.2342518 7.48828125 28.80859375 C7.49467117 29.59334579 7.5010611 30.37809784 7.50764465 31.18663025 C7.65661668 36.90725466 8.9763703 41.66926366 11 47 C11.33 47.99 11.66 48.98 12 50 C17.8190608 51.93968693 24.46672482 51.76476232 30.3125 50 C34.56499841 46.83535002 38.60802201 42.78395598 41 38 C41.15706331 35.15791974 41.2584957 32.33662693 41.31640625 29.4921875 C41.33718735 28.65156769 41.35796844 27.81094788 41.37937927 26.94485474 C41.44485439 24.25498765 41.5037502 21.56502157 41.5625 18.875 C41.60568716 17.05337511 41.64930152 15.23176029 41.69335938 13.41015625 C41.80053368 8.94020606 41.90180685 4.47015614 42 0 C44.64 0 47.28 0 50 0 C50.01030746 0.6241832 50.02061493 1.24836639 50.03123474 1.89146423 C50.13906533 8.36354552 50.25368147 14.83548093 50.37231445 21.30737305 C50.41573878 23.72563639 50.45740812 26.1439319 50.49731445 28.56225586 C50.55483603 32.02988396 50.61858187 35.49734903 50.68359375 38.96484375 C50.70030624 40.05337143 50.71701874 41.14189911 50.73423767 42.26341248 C50.7641555 43.76485558 50.7641555 43.76485558 50.79467773 45.29663086 C50.81799416 46.62566689 50.81799416 46.62566689 50.84178162 47.98155212 C50.77981325 49.99637541 50.77981325 49.99637541 52 51 C52.04092937 53.33297433 52.04241723 55.66705225 52 58 C46.64684015 58.35687732 46.64684015 58.35687732 44.1875 57 C42.29896856 53.81931546 42.30043453 50.66530121 42 47 C41.21625 48.051875 40.4325 49.10375 39.625 50.1875 C34.86620361 55.63244843 29.66155977 58.54028875 22.453125 59.4453125 C12.32013257 59.76597682 12.32013257 59.76597682 8.3125 57.1875 C7.549375 56.465625 6.78625 55.74375 6 55 C5.49173172 54.55377289 4.98346344 54.10754578 4.45979309 53.64779663 C-0.55652762 47.98543502 -0.42050724 38.97800994 -0.29296875 31.8359375 C-0.28872391 30.91785309 -0.28447906 29.99976868 -0.28010559 29.05386353 C-0.26349497 26.16059322 -0.22587775 23.2680549 -0.1875 20.375 C-0.17243032 18.39714557 -0.15874595 16.41928008 -0.14648438 14.44140625 C-0.11364953 9.62732798 -0.06199238 4.81378749 0 0 Z " fill="#393939" transform="translate(237,196)"/>
<path d="M0 0 C4.97549488 3.88331308 7.63875227 8.80095311 8.5625 15 C8.69639778 18.29875234 8.67878105 21.59354394 8.66015625 24.89453125 C8.6587413 25.84188644 8.65732635 26.78924164 8.65586853 27.76530457 C8.65028611 30.78106895 8.63773682 33.79675818 8.625 36.8125 C8.61998273 38.86132705 8.61542022 40.91015527 8.61132812 42.95898438 C8.60032243 47.97268506 8.58306988 52.9863298 8.5625 58 C6.2525 58 3.9425 58 1.5625 58 C1.54791748 56.90123535 1.53333496 55.8024707 1.51831055 54.67041016 C1.45985957 50.55128195 1.38263419 46.43267396 1.30004883 42.31396484 C1.26701779 40.53931185 1.23891965 38.76455931 1.21606445 36.98974609 C1.56085121 23.04911584 1.56085121 23.04911584 -2.4375 10 C-6.59259009 6.31182696 -9.98807113 6.43570488 -15.39453125 6.59375 C-20.79121153 7.31423106 -24.4067893 9.53001752 -27.85429382 13.7232666 C-31.31052254 18.91682656 -32.17529235 22.91506172 -32.14453125 29.09375 C-32.15965256 29.92588013 -32.17477386 30.75801025 -32.19035339 31.61535645 C-32.23295535 34.24385254 -32.24204123 36.87119427 -32.25 39.5 C-32.27316586 41.29430094 -32.29853551 43.08857485 -32.32617188 44.8828125 C-32.38875178 49.25530914 -32.4213017 53.62709557 -32.4375 58 C-35.0775 58 -37.7175 58 -40.4375 58 C-40.4375 38.86 -40.4375 19.72 -40.4375 0 C-38.1275 0 -35.8175 0 -33.4375 0 C-33.1075 3.63 -32.7775 7.26 -32.4375 11 C-31.57125 9.700625 -31.57125 9.700625 -30.6875 8.375 C-22.98673525 -0.73576392 -11.11769361 -3.23423814 0 0 Z " fill="#383838" transform="translate(344.4375,196)"/>
<path d="M0 0 C0.7105957 0.00161133 1.42119141 0.00322266 2.15332031 0.00488281 C9.43116019 0.17336662 15.3987888 1.82396183 21 6.625 C21.45375 7.2025 21.9075 7.78 22.375 8.375 C21.385 9.365 20.395 10.355 19.375 11.375 C18.715 11.106875 18.055 10.83875 17.375 10.5625 C16.385 10.170625 15.395 9.77875 14.375 9.375 C13.17875 8.83875 11.9825 8.3025 10.75 7.75 C5.70738003 5.87456639 0.68829882 5.72541174 -4.625 6.375 C-7.60484167 7.70670309 -7.60484167 7.70670309 -9.625 9.375 C-10.285 9.375 -10.945 9.375 -11.625 9.375 C-11.90219381 10.95379955 -12.14574143 12.53853067 -12.375 14.125 C-12.51421875 15.00671875 -12.6534375 15.8884375 -12.796875 16.796875 C-12.82696624 19.43962541 -12.82696624 19.43962541 -11.24609375 21.55078125 C-7.42382021 24.21099249 -3.4526053 24.87640125 1.0625 25.8125 C8.69835026 27.39686743 16.77667456 29.23244566 22.10058594 35.36157227 C24.72792221 39.51246159 23.91241955 44.66467572 23.375 49.375 C21.26348609 54.65378477 17.58999624 57.15698842 12.54296875 59.453125 C2.47678733 62.38237138 -7.75468786 61.17892262 -17.20703125 56.859375 C-19.75015781 55.29816645 -21.61414866 53.568656 -23.625 51.375 C-22.635 50.055 -21.645 48.735 -20.625 47.375 C-18.27749465 48.28371175 -15.98493125 49.17520765 -13.78125 50.3984375 C-6.99987424 53.96625087 -0.17925801 54.35802771 7.375 53.375 C11.33315782 51.76831582 12.98553167 50.95920249 15.375 47.375 C15.95842353 43.91730809 15.95842353 43.91730809 15.375 40.375 C10.38985983 34.75578498 2.16116502 33.88912816 -4.81054688 32.10742188 C-10.91510697 30.45559973 -15.25378086 29.04207154 -19.625 24.375 C-20.98182449 20.30452653 -21.14972254 16.63108283 -20.625 12.375 C-16.1674774 3.62504824 -9.51199342 -0.0222139 0 0 Z " fill="#3A3A3A" transform="translate(457.625,194.625)"/>
<path d="M0 0 C2.91505615 -0.29027042 5.15403886 -0.49246809 8 0 C10.1635152 2.00628299 11.43517705 3.47376018 13 5.875 C13.84003595 7.06458661 14.68119753 8.25337909 15.5234375 9.44140625 C15.93432617 10.03840332 16.34521484 10.63540039 16.76855469 11.25048828 C18.60762149 13.86324654 20.61150653 16.33298595 22.625 18.8125 C23.60339844 20.02873047 23.60339844 20.02873047 24.6015625 21.26953125 C25.06304687 21.84058594 25.52453125 22.41164062 26 23 C27.33444632 21.23000523 28.66747801 19.45894393 30 17.6875 C30.40863281 17.1522168 30.81726563 16.61693359 31.23828125 16.06542969 C33.30088416 13.34668916 35.22959899 10.63864249 37.0625 7.75390625 C41.86323268 0.31083481 41.86323268 0.31083481 45.5 -0.68359375 C47.77737992 -0.68715216 49.78400335 -0.50783257 52 0 C48.13178464 6.14363616 43.83424548 11.7582457 39.19140625 17.3359375 C36.33933326 20.80316348 33.6481127 24.37572026 31 28 C32.58315063 31.50436989 34.67720321 34.38053351 37 37.4375 C37.79277344 38.48421875 38.58554688 39.5309375 39.40234375 40.609375 C41.19831979 42.95991978 43.00499867 45.30195617 44.81640625 47.640625 C45.27466797 48.23302979 45.73292969 48.82543457 46.20507812 49.43579102 C47.10096603 50.59190535 47.99935596 51.74608571 48.90039062 52.89819336 C52 56.89035718 52 56.89035718 52 58 C48.83478184 58.60135082 46.15199723 58.73723622 43 58 C39.928775 55.35137918 37.87888951 52.13915235 35.6875 48.75 C34.50654394 47.01382789 33.32303018 45.27939225 32.13671875 43.546875 C31.37427856 42.38430176 31.37427856 42.38430176 30.59643555 41.19824219 C28.917231 38.88602965 27.06777307 36.9667491 25 35 C24.59160889 35.55461914 24.18321777 36.10923828 23.76245117 36.68066406 C21.90431487 39.20390921 20.04591011 41.72695651 18.1875 44.25 C17.22360352 45.55904297 17.22360352 45.55904297 16.24023438 46.89453125 C15.30727539 48.16103516 15.30727539 48.16103516 14.35546875 49.453125 C13.49924927 50.61569824 13.49924927 50.61569824 12.62573242 51.80175781 C12.08924072 52.52717773 11.55274902 53.25259766 11 54 C10.47792969 54.74572266 9.95585937 55.49144531 9.41796875 56.25976562 C8 58 8 58 5.95703125 58.390625 C3.97135417 58.26041667 1.98567708 58.13020833 0 58 C1.30659488 55.22977492 2.75922085 52.82904675 4.609375 50.390625 C5.11726562 49.71773437 5.62515625 49.04484375 6.1484375 48.3515625 C6.67695313 47.65804687 7.20546875 46.96453125 7.75 46.25 C8.26304687 45.57195312 8.77609375 44.89390625 9.3046875 44.1953125 C9.81773437 43.51726562 10.33078125 42.83921875 10.859375 42.140625 C11.36919922 41.45935547 11.87902344 40.77808594 12.40429688 40.07617188 C13.50112224 38.64909064 14.63530039 37.25019379 15.79882812 35.87695312 C17.37350053 33.96907358 18.79366828 32.15971819 20 30 C19.47011378 25.4581181 15.65525527 21.74510485 12.8125 18.25 C11.82289744 17.01043201 10.83331413 15.77084866 9.84375 14.53125 C8.89625386 13.35382813 7.94836368 12.17672321 7 11 C5.59928581 9.25390423 4.20252275 7.50461889 2.8125 5.75 C2.26207031 5.06421875 1.71164063 4.3784375 1.14453125 3.671875 C0 2 0 2 0 0 Z " fill="#393939" transform="translate(138,196)"/>
<path d="M0 0 C-0.33 1.98 -0.66 3.96 -1 6 C-1.56847656 5.84273437 -2.13695312 5.68546875 -2.72265625 5.5234375 C-6.50998935 4.65293555 -10.15200221 4.3689558 -14 5 C-17.44944096 7.73080743 -19.7289589 9.95882626 -20.31640625 14.3828125 C-20.39761719 15.28773438 -20.47882813 16.19265625 -20.5625 17.125 C-20.706875 18.73375 -20.85125 20.3425 -21 22 C-15.72 22 -10.44 22 -5 22 C-5 23.98 -5 25.96 -5 28 C-10.28 28 -15.56 28 -21 28 C-21 45.16 -21 62.32 -21 80 C-23.64 80 -26.28 80 -29 80 C-29 62.84 -29 45.68 -29 28 C-31.64 28 -34.28 28 -37 28 C-37 26.02 -37 24.04 -37 22 C-34.36 22 -31.72 22 -29 22 C-29.0928125 20.2984375 -29.0928125 20.2984375 -29.1875 18.5625 C-29.1653907 12.31662287 -27.47154843 6.57941583 -23.6875 1.5625 C-17.03641523 -4.77923199 -7.59109273 -4.67144168 0 0 Z " fill="#3B3B3B" transform="translate(232,174)"/>
<path d="M0 0 C5.56311631 3.30493802 9.83755976 9.29021515 11.5625 15.5 C11.5625 16.82 11.5625 18.14 11.5625 19.5 C-2.6275 19.5 -16.8175 19.5 -31.4375 19.5 C-31.4375 11.85542614 -29.06415483 7.19244448 -23.71484375 1.74609375 C-17.05917541 -3.21386291 -7.48742996 -3.20479248 0 0 Z " fill="#F8F8F8" transform="translate(115.4375,202.5)"/>
<path d="M0 0 C2.77789004 0.77848128 4.45784852 2.35752086 6.09375 4.6953125 C7.68842152 8.18734782 7.42187957 10.72847965 6.9375 14.54296875 C5.5413245 17.46224479 4.21547004 19.26499871 1.9375 21.54296875 C-5.16851719 22.23064783 -5.16851719 22.23064783 -8.5 19.66796875 C-11.77091648 15.21952233 -11.79000477 10.93157965 -11.0625 5.54296875 C-8.15949157 1.00701808 -5.23977087 -0.36718091 0 0 Z " fill="#F9F9F9" transform="translate(252.0625,271.45703125)"/>
<path d="M0 0 C3.63354502 0.94501473 4.93542865 2.37566977 6.9375 5.50390625 C7.74494075 10.23985682 7.5342543 14.17477167 5.5625 18.56640625 C3.9375 20.50390625 3.9375 20.50390625 1.9375 21.50390625 C-5.27976041 22.08594338 -5.27976041 22.08594338 -8.5 19.69140625 C-11.3805592 15.65862337 -11.84315674 11.32400778 -11.0625 6.50390625 C-8.79929658 1.48044073 -5.37795448 -0.47871943 0 0 Z " fill="#F9F9F9" transform="translate(207.0625,271.49609375)"/>
<path d="M0 0 C29.7 0 59.4 0 90 0 C90 0.99 90 1.98 90 3 C60.3 3 30.6 3 0 3 C0 2.01 0 1.02 0 0 Z " fill="#484848" transform="translate(23,281)"/>
<path d="M0 0 C29.37 0 58.74 0 89 0 C89 0.99 89 1.98 89 3 C59.63 3 30.26 3 0 3 C0 2.01 0 1.02 0 0 Z " fill="#464646" transform="translate(379,281)"/>
<path d="M0 0 C10 0 10 0 14 3 C14.25 6.1875 14.25 6.1875 14 9 C12.02 9.99 12.02 9.99 10 11 C11.65 14.3 13.3 17.6 15 21 C13.68 21 12.36 21 11 21 C7 14.25 7 14.25 7 12 C5.68 12 4.36 12 3 12 C3 14.97 3 17.94 3 21 C2.01 21 1.02 21 0 21 C0 14.07 0 7.14 0 0 Z " fill="#414141" transform="translate(356,272)"/>
<path d="M0 0 C2.57923325 1.42578732 3.94118149 2.78677011 6 5 C6.33 6.32 6.66 7.64 7 9 C-1.58 9 -10.16 9 -19 9 C-17.01121046 4.02802615 -16.19871138 2.86741265 -12 0 C-7.80366719 -1.3987776 -4.27111567 -1.06959796 0 0 Z " fill="#F1F1F1" transform="translate(98,272)"/>
<path d="M0 0 C3.63354502 0.94501473 4.93542865 2.37566977 6.9375 5.50390625 C7.74494075 10.23985682 7.5342543 14.17477167 5.5625 18.56640625 C3.9375 20.50390625 3.9375 20.50390625 1.9375 21.50390625 C-5.27976041 22.08594338 -5.27976041 22.08594338 -8.5 19.69140625 C-11.3805592 15.65862337 -11.84315674 11.32400778 -11.0625 6.50390625 C-8.79929658 1.48044073 -5.37795448 -0.47871943 0 0 Z M-6.375 4.00390625 C-8.75793843 7.5341854 -8.59744989 10.36865867 -8.0625 14.50390625 C-7.70271433 16.97937497 -7.70271433 16.97937497 -6.0625 18.50390625 C-2.50043339 19.3226081 -2.50043339 19.3226081 0.9375 19.50390625 C3.62335151 16.44146709 4.34927958 14.50554966 4.3125 10.44140625 C4.32023438 9.58417969 4.32796875 8.72695313 4.3359375 7.84375 C3.86227581 5.06214849 3.17301918 4.17652492 0.9375 2.50390625 C-2.29427469 1.92384413 -3.61127578 2.21122027 -6.375 4.00390625 Z " fill="#474747" transform="translate(207.0625,271.49609375)"/>
<path d="M0 0 C2.77789004 0.77848128 4.45784852 2.35752086 6.09375 4.6953125 C7.68842152 8.18734782 7.42187957 10.72847965 6.9375 14.54296875 C5.5413245 17.46224479 4.21547004 19.26499871 1.9375 21.54296875 C-5.16851719 22.23064783 -5.16851719 22.23064783 -8.5 19.66796875 C-11.77091648 15.21952233 -11.79000477 10.93157965 -11.0625 5.54296875 C-8.15949157 1.00701808 -5.23977087 -0.36718091 0 0 Z M-6.875 3.98046875 C-8.64645689 7.80308626 -8.6554944 11.39961041 -8.0625 15.54296875 C-6.74486671 18.06189545 -6.74486671 18.06189545 -5.0625 19.54296875 C-0.35843798 19.41387735 -0.35843798 19.41387735 3.375 16.98046875 C4.19301239 13.43574841 4.53646377 10.15154058 3.9375 6.54296875 C1.94744763 3.59474302 0.86006572 2.72298157 -2.625 2.04296875 C-5.11526958 2.36274631 -5.11526958 2.36274631 -6.875 3.98046875 Z " fill="#494949" transform="translate(252.0625,271.45703125)"/>
<path d="M0 0 C1.051875 -0.00386719 1.051875 -0.00386719 2.125 -0.0078125 C4 0.125 4 0.125 6 1.125 C5.67 2.115 5.34 3.105 5 4.125 C4.34 3.795 3.68 3.465 3 3.125 C-1.09185129 2.775896 -1.09185129 2.775896 -4.875 4.125 C-6.68159223 7.33671951 -6.51338313 10.58123032 -6 14.125 C-5.06756129 16.70451684 -5.06756129 16.70451684 -3 18.125 C0.12586875 18.45897787 0.12586875 18.45897787 3 18.125 C3.33 16.145 3.66 14.165 4 12.125 C2.35 12.125 0.7 12.125 -1 12.125 C-1 11.465 -1 10.805 -1 10.125 C1.31 10.125 3.62 10.125 6 10.125 C6 13.425 6 16.725 6 20.125 C2.54968739 21.85015631 -1.22716304 21.62177924 -5 21.125 C-8.03215675 18.92668636 -8.81654398 17.67536806 -10 14.125 C-10.53756448 8.42681648 -9.60129241 5.57365533 -6 1.125 C-3.75487738 0.00243869 -2.48543351 -0.00913762 0 0 Z " fill="#424242" transform="translate(186,271.875)"/>
<path d="M0 0 C1.051875 -0.00386719 1.051875 -0.00386719 2.125 -0.0078125 C4 0.125 4 0.125 6 1.125 C5.67 2.115 5.34 3.105 5 4.125 C4.34 3.795 3.68 3.465 3 3.125 C-1.09185129 2.775896 -1.09185129 2.775896 -4.875 4.125 C-6.68159223 7.33671951 -6.51338313 10.58123032 -6 14.125 C-5.06756129 16.70451684 -5.06756129 16.70451684 -3 18.125 C0.12586875 18.45897787 0.12586875 18.45897787 3 18.125 C3.33 16.145 3.66 14.165 4 12.125 C2.68 12.125 1.36 12.125 0 12.125 C0 11.465 0 10.805 0 10.125 C1.98 10.125 3.96 10.125 6 10.125 C6 13.425 6 16.725 6 20.125 C2.53969009 21.85515495 -1.22544297 21.74289902 -5 21.125 C-8.309097 17.98135785 -9.87733413 15.4007251 -10.3125 10.875 C-9.94713599 6.49063187 -8.73973233 4.50937523 -6 1.125 C-3.75487738 0.00243869 -2.48543351 -0.00913762 0 0 Z " fill="#484848" transform="translate(272,271.875)"/>
<path d="M0 0 C0.66 0 1.32 0 2 0 C2 2.97 2 5.94 2 9 C5.63 9 9.26 9 13 9 C13 6.03 13 3.06 13 0 C13.66 0 14.32 0 15 0 C15 6.93 15 13.86 15 21 C14.01 21 13.02 21 12 21 C12 17.7 12 14.4 12 11 C9.03 11 6.06 11 3 11 C3 14.3 3 17.6 3 21 C2.01 21 1.02 21 0 21 C0 14.07 0 7.14 0 0 Z " fill="#414141" transform="translate(318,272)"/>
<path d="M0 0 C4.29 0 8.58 0 13 0 C13 0.66 13 1.32 13 2 C9.7 2 6.4 2 3 2 C3 4.31 3 6.62 3 9 C5.64 9 8.28 9 11 9 C11 9.66 11 10.32 11 11 C8.36 11 5.72 11 3 11 C3 13.64 3 16.28 3 19 C6.3 19 9.6 19 13 19 C13 19.66 13 20.32 13 21 C8.71 21 4.42 21 0 21 C0 14.07 0 7.14 0 0 Z " fill="#444444" transform="translate(283,272)"/>
<path d="M0 0 C4.29 0 8.58 0 13 0 C13 0.66 13 1.32 13 2 C9.7 2 6.4 2 3 2 C3 4.31 3 6.62 3 9 C5.64 9 8.28 9 11 9 C11 9.66 11 10.32 11 11 C8.36 11 5.72 11 3 11 C3 13.64 3 16.28 3 19 C6.3 19 9.6 19 13 19 C13 19.66 13 20.32 13 21 C8.71 21 4.42 21 0 21 C0 14.07 0 7.14 0 0 Z " fill="#434343" transform="translate(136,272)"/>
<path d="M0 0 C3.96 0 7.92 0 12 0 C12 0.66 12 1.32 12 2 C9.03 2 6.06 2 3 2 C3 4.31 3 6.62 3 9 C5.64 9 8.28 9 11 9 C11 9.66 11 10.32 11 11 C8.36 11 5.72 11 3 11 C3 13.64 3 16.28 3 19 C5.97 19 8.94 19 12 19 C12 19.66 12 20.32 12 21 C8.04 21 4.08 21 0 21 C0 14.07 0 7.14 0 0 Z " fill="#3B3B3B" transform="translate(339,272)"/>
<path d="M0 0 C1.875 1.0625 1.875 1.0625 3 3 C2.55555556 9.44444444 2.55555556 9.44444444 1 11 C-2.4375 11.1875 -2.4375 11.1875 -6 11 C-8 9 -8 9 -8.3125 6.0625 C-8 3 -8 3 -6.8125 1.125 C-4.34492892 -0.40659584 -2.85480169 -0.42822025 0 0 Z " fill="#F0F0F0" transform="translate(33,41)"/>
<path d="M0 0 C5.28 0 10.56 0 16 0 C16 0.66 16 1.32 16 2 C14.02 2 12.04 2 10 2 C10 8.27 10 14.54 10 21 C9.01 21 8.02 21 7 21 C7 14.73 7 8.46 7 2 C4.69 2 2.38 2 0 2 C0 1.34 0 0.68 0 0 Z " fill="#444444" transform="translate(151,272)"/>
<path d="M0 0 C4.95 0 9.9 0 15 0 C15 0.66 15 1.32 15 2 C13.02 2 11.04 2 9 2 C9 8.27 9 14.54 9 21 C8.01 21 7.02 21 6 21 C6 14.73 6 8.46 6 2 C4.02 2 2.04 2 0 2 C0 1.34 0 0.68 0 0 Z " fill="#414141" transform="translate(299,272)"/>
<path d="M0 0 C4.95 0 9.9 0 15 0 C15 0.66 15 1.32 15 2 C13.02 2 11.04 2 9 2 C9 8.27 9 14.54 9 21 C8.01 21 7.02 21 6 21 C6 14.73 6 8.46 6 2 C4.02 2 2.04 2 0 2 C0 1.34 0 0.68 0 0 Z " fill="#464646" transform="translate(224,272)"/>
<path d="M0 0 C0.33 0 0.66 0 1 0 C1 2.64 1 5.28 1 8 C3.31 8 5.62 8 8 8 C8.81302325 9.45804169 9.62540131 10.91644315 10.4375 12.375 C11.11619141 13.59316406 11.11619141 13.59316406 11.80859375 14.8359375 C12.5650536 16.20996622 13.29854631 17.59709261 14 19 C12.68 19 11.36 19 10 19 C6 12.25 6 12.25 6 10 C4.68 10 3.36 10 2 10 C2 12.97 2 15.94 2 19 C1.34 19 0.68 19 0 19 C0 12.73 0 6.46 0 0 Z " fill="#3D3D3D" transform="translate(357,274)"/>
<path d="M0 0 C0.66 0 1.32 0 2 0 C2 6.27 2 12.54 2 19 C5.3 19 8.6 19 12 19 C12 19.66 12 20.32 12 21 C8.04 21 4.08 21 0 21 C0 14.07 0 7.14 0 0 Z " fill="#353535" transform="translate(121,272)"/>
<path d="M0 0 C2.33294775 -0.04241723 4.66702567 -0.04092937 7 0 C8 1 8 1 8.0625 4.0625 C8.041875 5.031875 8.02125 6.00125 8 7 C5.29120665 8.35439668 2.99066732 8.06501451 0 8 C0 5.36 0 2.72 0 0 Z " fill="#F8F8F8" transform="translate(359,274)"/>
<path d="M0 0 C7.2 -0.48 7.2 -0.48 10.5 1.5 C12.68405234 5.14008723 12.28023018 7.79654733 12 12 C11.01 12.495 11.01 12.495 10 13 C9.34 10.03 8.68 7.06 8 4 C3.38492226 2.95785309 3.38492226 2.95785309 -1 4 C-0.67 2.68 -0.34 1.36 0 0 Z " fill="#3C3C3C" transform="translate(246,272)"/>
<path d="M0 0 C2.31 0 4.62 0 7 0 C7 3.3 7 6.6 7 10 C4.04335481 11.4783226 1.25770263 11.06032783 -2 11 C-2 10.34 -2 9.68 -2 9 C-0.02 8.67 1.96 8.34 4 8 C4.33 6.02 4.66 4.04 5 2 C3.35 2 1.7 2 0 2 C0 1.34 0 0.68 0 0 Z " fill="#3A3A3A" transform="translate(185,282)"/>
<path d="M0 0 C1.98 0 3.96 0 6 0 C6 3.3 6 6.6 6 10 C3.04335481 11.4783226 0.25770263 11.06032783 -3 11 C-3 10.34 -3 9.68 -3 9 C-1.02 8.67 0.96 8.34 3 8 C3.33 6.02 3.66 4.04 4 2 C2.68 2 1.36 2 0 2 C0 1.34 0 0.68 0 0 Z " fill="#373737" transform="translate(272,282)"/>
<path d="M0 0 C-0.33 0.99 -0.66 1.98 -1 3 C-3.31 3 -5.62 3 -8 3 C-8.66 5.64 -9.32 8.28 -10 11 C-10.66 11 -11.32 11 -12 11 C-12.47863248 4.77777778 -12.47863248 4.77777778 -10.5 1.5625 C-6.86353539 -0.71029038 -4.24217465 -0.28281164 0 0 Z " fill="#3E3E3E" transform="translate(209,272)"/>
<path d="M0 0 C0.66 0.33 1.32 0.66 2 1 C1.34 4.96 0.68 8.92 0 13 C-0.99 13.33 -1.98 13.66 -3 14 C-3.08153933 12.41753293 -3.13943557 10.83383727 -3.1875 9.25 C-3.22230469 8.36828125 -3.25710937 7.4865625 -3.29296875 6.578125 C-2.94923684 3.55328417 -1.99772541 2.24416398 0 0 Z " fill="#4B4B4B" transform="translate(244,273)"/>
<path d="M0 0 C3.625 0.0625 3.625 0.0625 7 1 C7.66 1.99 8.32 2.98 9 4 C4.71 4 0.42 4 -4 4 C-2.68 2.68 -1.36 1.36 0 0 Z " fill="#FEFEFE" transform="translate(89,277)"/>
<path d="M0 0 C0.33 1.32 0.66 2.64 1 4 C1.66 4 2.32 4 3 4 C4.72264494 7.29549466 6.29445932 10.33118845 7 14 C4.3354186 12.98929671 3.04804128 12.0600516 1.25 9.8125 C-0.27739989 6.37585024 -0.21888362 3.72102151 0 0 Z " fill="#4C4C4C" transform="translate(176,279)"/>
<path d="M0 0 C3 1 3 1 5 4 C7.56282742 4.72965366 7.56282742 4.72965366 10 5 C9.67 5.66 9.34 6.32 9 7 C5.625 6.6875 5.625 6.6875 2 6 C0 3 0 3 0 0 Z " fill="#404040" transform="translate(242,286)"/>
<path d="M0 0 C0.99 0 1.98 0 3 0 C3.99 1.98 4.98 3.96 6 6 C4.68 6 3.36 6 2 6 C1.34 4.02 0.68 2.04 0 0 Z " fill="#4A4A4A" transform="translate(365,287)"/>
<path d="M0 0 C0.33 0 0.66 0 1 0 C1 1.65 1 3.3 1 5 C1.66 5 2.32 5 3 5 C3 6.65 3 8.3 3 10 C2.01 10.495 2.01 10.495 1 11 C-0.28317892 7.15046324 -0.06643637 4.05261865 0 0 Z " fill="#545454" transform="translate(196,278)"/>
<path d="M0 0 C0.66 0.33 1.32 0.66 2 1 C0.25 3.0625 0.25 3.0625 -2 5 C-4.25 4.75 -4.25 4.75 -6 4 C-4.02 2.68 -2.04 1.36 0 0 Z " fill="#3E3E3E" transform="translate(211,288)"/>
<path d="M0 0 C0.33 1.32 0.66 2.64 1 4 C1.66 4 2.32 4 3 4 C3 5.65 3 7.3 3 9 C2.01 9.495 2.01 9.495 1 10 C-0.1577506 6.52674819 -0.06866652 3.63932552 0 0 Z " fill="#525252" transform="translate(176,279)"/>
<path d="M0 0 C0.33 0.99 0.66 1.98 1 3 C1.66 3 2.32 3 3 3 C2.34 4.32 1.68 5.64 1 7 C0.34 7 -0.32 7 -1 7 C-1.33 7.66 -1.66 8.32 -2 9 C-2 7.68 -2 6.36 -2 5 C-1.34 5 -0.68 5 0 5 C0 3.35 0 1.7 0 0 Z " fill="#515151" transform="translate(367,276)"/>
</svg>
